<svg width="82" height="91" viewBox="0 0 82 91" fill="none" xmlns="http://www.w3.org/2000/svg">
<path d="M61.8716 0.705501C67.0538 4.73776 71.3909 9.75124 74.6355 15.4597C77.8801 21.1681 79.9685 27.4597 80.7816 33.9753C81.5947 40.4908 81.1165 47.1027 79.3743 53.4335C77.6321 59.7642 74.66 65.6898 70.6277 70.872C66.5955 76.0541 61.582 80.3913 55.8735 83.6358C50.1651 86.8804 43.8735 88.9689 37.3579 89.7819C30.8424 90.595 24.2305 90.1168 17.8997 88.3746C11.569 86.6324 5.64339 83.6603 0.461264 79.628L17.3205 57.9611C19.6573 59.7794 22.3293 61.1196 25.1841 61.9052C28.0388 62.6909 31.0203 62.9065 33.9584 62.5399C36.8965 62.1732 39.7336 61.2315 42.3077 59.7684C44.8818 58.3053 47.1425 56.3495 48.9608 54.0127C50.7791 51.6759 52.1193 49.0039 52.9049 46.1492C53.6905 43.2944 53.9062 40.3129 53.5395 37.3748C53.1729 34.4368 52.2311 31.5997 50.7681 29.0255C49.305 26.4514 47.3492 24.1907 45.0124 22.3724L61.8716 0.705501Z" fill="#36B2F8"/>
</svg>
